Coordinates
version=1
nRows=5
nColumns=42
inDegrees=yes

Units are S.I. units (second, meters, Newtons, ...)
If the header above contains a line with 'inDegrees', this indicates whether rotational values are in degrees (yes) or radians (no).

endheader
time	pelvis_tilt	pelvis_list	pelvis_rotation	pelvis_tx	pelvis_ty	pelvis_tz	hip_flexion_r	hip_adduction_r	hip_rotation_r	knee_angle_r	knee_adduction_r	knee_angle_r_beta	ankle_angle_r	subtalar_angle_r	mtp_angle_r	hip_flexion_l	hip_adduction_l	hip_rotation_l	knee_angle_l	knee_adduction_l	knee_angle_l_beta	ankle_angle_l	subtalar_angle_l	mtp_angle_l	lumbar_extension	lumbar_bending	lumbar_rotation	arm_flex_r	arm_add_r	arm_rot_r	elbow_flex_r	pro_sup_r	wrist_flex_r	wrist_dev_r	arm_flex_l	arm_add_l	arm_rot_l	elbow_flex_l	pro_sup_l	wrist_flex_l	wrist_dev_l
      1.32000000	     13.69172221	     -5.33550174	      4.08080050	      0.28501923	      0.85393986	     -0.16139767	      3.15717602	      6.83636972	    -10.26942047	     18.34409261	      1.73804704	      0.32016481	     10.12335991	    -10.07263828	     -7.50979746	    -24.80840870	    -10.50652119	      1.01198779	     41.93134406	     10.03905238	      0.73184001	     -7.78227847	    -13.56248452	     -7.50979746	    -25.04113953	      6.14998493	      4.76922541	     -7.35165913	     -7.28688469	     -9.43284070	     26.77421994	     90.00000001	      0.00000000	      0.00000000	     22.14408350	     -6.27151311	      8.61853692	     38.80897189	     90.00000001	      0.00000000	      0.00000000
      1.33000000	     13.47366645	     -5.64070195	      4.07570977	      0.29636316	      0.85489735	     -0.16022554	      2.33997638	      7.42726075	    -10.12680750	     17.76118334	      1.64073009	      0.30999113	     11.04130235	     -9.27498430	     -7.50949173	    -22.72868866	    -11.09049296	      0.87016236	     45.60472968	      9.57409635	      0.79595269	     -8.80267097	    -15.31500739	     -7.50949173	    -24.75080489	      6.47710619	      4.82684910	     -6.34986381	     -7.49942910	     -9.24537642	     26.68100435	     90.00000001	      0.00000000	      0.00000000	     21.34564226	     -6.21324562	      8.67099845	     37.26161378	     90.00000001	      0.00000000	      0.00000000
      1.34000000	     13.65177857	     -5.61562105	      3.91234409	      0.30747964	      0.85636401	     -0.15893267	      1.13644049	      7.61304034	    -10.11714256	     17.42311812	      1.59293994	      0.30409078	     11.75277787	     -8.61339786	     -7.50927049	    -21.27544011	    -11.18675120	      0.73883869	     48.59100413	      9.01504457	      0.84807301	     -8.30019548	    -16.16694765	     -7.50927049	    -24.97679924	      6.37628464	      4.99275609	     -5.31976666	     -7.67405026	     -9.09369691	     26.84052615	     90.00000001	      0.00000000	      0.00000000	     20.55362481	     -6.22116825	      8.62545876	     36.16764736	     90.00000001	      0.00000000	      0.00000000
      1.35000000	     13.60819201	     -5.73350036	      3.65891640	      0.31830744	      0.85740890	     -0.15735435	      0.32095382	      8.01301949	    -10.16997300	     17.29545638	      1.32518152	      0.30186266	     12.48166919	     -7.74799334	     -7.50884497	    -19.40794394	    -11.48874862	     -0.23380923	     51.71693441	      7.97390875	      0.90263078	     -7.15716109	    -16.40338375	     -7.50884497	    -24.98222598	      6.35872690	      5.30681326	     -4.25034305	     -7.85633728	     -8.84375996	     26.93227999	     90.00000001	      0.00000000	      0.00000000	     19.77706408	     -6.13460115	      8.31479157	     34.99325016	     90.00000001	      0.00000000	      0.00000000
      1.36000000	     13.88346619	     -5.55030368	      3.58374984	      0.32914087	      0.85900802	     -0.15632195	     -1.05068569	      7.98466149	    -10.09783444	     16.84510471	      1.34390281	      0.29400254	     13.16640602	     -7.12602519	     -7.50861158	    -17.95125861	    -11.35859821	     -0.90215161	     54.20415215	      6.72240642	      0.94604092	     -5.62225876	    -16.81730321	     -7.50861158	    -25.32958734	      6.11104046	      5.37737202	     -3.14117277	     -8.00483750	     -8.66770074	     27.19448324	     90.00000001	      0.00000000	      0.00000000	     18.99311950	     -6.15268103	      8.24745859	     33.97501956	     90.00000001	      0.00000000	      0.00000000
